HIERARCHY
ROOT Hips
{
	OFFSET 0.00000 0.00000 0.00000
	CHANNELS 6 Xposition Yposition Zposition Zrotation Yrotation Xrotation 
	JOINT LHipJoint
	{
		OFFSET 0 0 0
		CHANNELS 3 Zrotation Yrotation Xrotation
		JOINT LeftUpLeg
		{
			OFFSET 1.58895 -1.83665 0.71753
			CHANNELS 3 Zrotation Yrotation Xrotation
			JOINT LeftLeg
			{
				OFFSET 2.50528 -6.88321 0.00000
				CHANNELS 3 Zrotation Yrotation Xrotation
				JOINT LeftFoot
				{
					OFFSET 2.63244 -7.23257 0.00000
					CHANNELS 3 Zrotation Yrotation Xrotation
					JOINT LeftToeBase
					{
						OFFSET 0.23691 -0.65090 1.72750
						CHANNELS 3 Zrotation Yrotation Xrotation
						End Site
						{
							OFFSET 0.00000 -0.00000 0.92561
						}
					}
				}
			}
		}
	}
	JOINT RHipJoint
	{
		OFFSET 0 0 0
		CHANNELS 3 Zrotation Yrotation Xrotation
		JOINT RightUpLeg
		{
			OFFSET -1.51435 -1.83665 0.71753
			CHANNELS 3 Zrotation Yrotation Xrotation
			JOINT RightLeg
			{
				OFFSET -2.54551 -6.99375 0.00000
				CHANNELS 3 Zrotation Yrotation Xrotation
				JOINT RightFoot
				{
					OFFSET -2.66027 -7.30903 0.00000
					CHANNELS 3 Zrotation Yrotation Xrotation
					JOINT RightToeBase
					{
						OFFSET -0.22981 -0.63138 2.03959
						CHANNELS 3 Zrotation Yrotation Xrotation
						End Site
						{
							OFFSET -0.00000 -0.00000 1.07060
						}
					}
				}
			}
		}
	}
	JOINT LowerBack
	{
		OFFSET 0 0 0
		CHANNELS 3 Zrotation Yrotation Xrotation
		JOINT Spine
		{
			OFFSET -0.02651 1.86275 -0.11152
			CHANNELS 3 Zrotation Yrotation Xrotation
			JOINT Spine1
			{
				OFFSET 0.01019 1.86224 0.04087
				CHANNELS 3 Zrotation Yrotation Xrotation
				JOINT Neck
				{
					OFFSET 0 0 0
					CHANNELS 3 Zrotation Yrotation Xrotation
					JOINT Neck1
					{
						OFFSET -0.01926 1.80512 0.08867
						CHANNELS 3 Zrotation Yrotation Xrotation
						JOINT Head
						{
							OFFSET 0.05516 1.76451 -0.38475
							CHANNELS 3 Zrotation Yrotation Xrotation
							End Site
							{
								OFFSET 0.01592 1.82587 -0.14001
							}
						}
					}
				}
				JOINT LeftShoulder
				{
					OFFSET 0 0 0
					CHANNELS 3 Zrotation Yrotation Xrotation
					JOINT LeftArm
					{
						OFFSET 3.47116 1.51376 0.14491
						CHANNELS 3 Zrotation Yrotation Xrotation
						JOINT LeftForeArm
						{
							OFFSET 4.78095 -0.00000 0.00000
							CHANNELS 3 Zrotation Yrotation Xrotation
							JOINT LeftHand
							{
								OFFSET 3.58615 -0.00000 -0.00000
								CHANNELS 3 Zrotation Yrotation Xrotation
								JOINT LeftFingerBase
								{
									OFFSET 0 0 0
									CHANNELS 3 Zrotation Yrotation Xrotation
									JOINT LeftHandIndex1
									{
										OFFSET 0.65981 -0.00000 0.00000
										CHANNELS 3 Zrotation Yrotation Xrotation
										End Site
										{
											OFFSET 0.53196 -0.00000 0.00000
										}
									}
								}
								JOINT LThumb
								{
									OFFSET 0 0 0
									CHANNELS 3 Zrotation Yrotation Xrotation
									End Site
									{
										OFFSET 0.54008 -0.00000 0.54008
									}
								}
							}
						}
					}
				}
				JOINT RightShoulder
				{
					OFFSET 0 0 0
					CHANNELS 3 Zrotation Yrotation Xrotation
					JOINT RightArm
					{
						OFFSET -3.31725 1.61216 0.35156
						CHANNELS 3 Zrotation Yrotation Xrotation
						JOINT RightForeArm
						{
							OFFSET -4.48913 -0.00000 0.00000
							CHANNELS 3 Zrotation Yrotation Xrotation
							JOINT RightHand
							{
								OFFSET -3.70510 -0.00000 0.00000
								CHANNELS 3 Zrotation Yrotation Xrotation
								JOINT RightFingerBase
								{
									OFFSET 0 0 0
									CHANNELS 3 Zrotation Yrotation Xrotation
									JOINT RightHandIndex1
									{
										OFFSET -0.44914 -0.00000 0.00000
										CHANNELS 3 Zrotation Yrotation Xrotation
										End Site
										{
											OFFSET -0.36211 -0.00000 0.00000
										}
									}
								}
								JOINT RThumb
								{
									OFFSET 0 0 0
									CHANNELS 3 Zrotation Yrotation Xrotation
									End Site
									{
										OFFSET -0.36763 -0.00000 0.36763
									}
								}
							}
						}
					}
				}
			}
		}
	}
}
MOTION
Frames: 12
Frame Time: .0083333
-0.7032 18.7213 5.7096 -1.3772 -0.7521 1.4987 0.0000 0.0000 0.0000 -12.2258 -3.9755 -3.9384 1.2500 7.0883 19.9774 1.2363 2.5940 -22.0828 8.5635 -16.5185 -54.5681 0.0000 0.0000 0.0000 0.0000 0.0000 0.0000 0.0000 0.0000 0.0000 -0.0000 -0.0000 0.0000 -0.0000 -0.0000 0.0000 8.9580 1.3467 8.0781 1.5991 2.8988 -2.7740 -3.7332 1.0504 -7.1478 -6.8173 -9.9260 -8.9813 4.6941 -12.7677 3.7610 1.9119 -6.2667 3.6567 -0.0000 -0.0000 0.0000 -83.2292 27.5303 42.7860 59.9865 -56.3063 -34.3299 -0.0000 -0.0000 1.1592 7.7993 -22.2332 -2.9668 -7.1250 0.0000 -0.0000 -13.2097 8.0357 11.5530 -0.0000 -0.0000 0.0000 24.3118 31.2487 -3.6050 -107.0538 58.8721 -74.7131 0.0000 0.0000 6.1791 -31.0483 -32.0336 17.7090 7.1250 -0.0000 -0.0000 1.0760 -66.1180 -0.5483
-0.7063 18.7215 5.7105 -1.3681 -0.7054 1.5028 0.0000 0.0000 0.0000 -12.2198 -3.9454 -3.9661 1.2485 7.0844 19.9655 1.2272 2.6001 -22.0097 8.5926 -16.5383 -54.6703 0.0000 0.0000 0.0000 0.0000 0.0000 0.0000 0.0000 0.0000 0.0000 -0.0000 -0.0000 0.0000 -0.0000 -0.0000 0.0000 8.8886 1.3480 8.0625 1.6205 2.8904 -2.7418 -3.6698 1.0527 -7.1086 -6.8548 -9.8844 -8.9323 4.7791 -12.7102 3.5709 1.9576 -6.2365 3.5873 -0.0000 0.0000 0.0000 -83.1197 27.5302 42.9701 60.2375 -56.3729 -34.5388 -0.0000 -0.0000 1.0980 7.8122 -22.2284 -2.9712 -7.1250 0.0000 -0.0000 -13.2017 8.0391 11.5447 -0.0000 0.0000 0.0000 25.1602 30.7479 -2.6264 -107.7693 58.7727 -75.3252 0.0000 0.0000 6.0901 -30.9081 -32.0031 17.6032 7.1250 -0.0000 -0.0000 1.2479 -66.0446 -0.6338
-0.7099 18.7215 5.7114 -1.3480 -0.6742 1.5046 0.0000 0.0000 0.0000 -12.2224 -3.9075 -3.9854 1.2474 7.0814 19.9568 1.2204 2.5774 -21.9408 8.5953 -16.5401 -54.6797 0.0000 0.0000 0.0000 0.0000 0.0000 0.0000 0.0000 0.0000 0.0000 -0.0000 -0.0000 0.0000 -0.0000 -0.0000 0.0000 8.7809 1.3598 8.0447 1.6286 2.8877 -2.6676 -3.5992 1.0625 -7.0228 -6.8062 -9.9089 -9.1377 4.7483 -12.7311 3.5389 1.9282 -6.2438 3.6097 -0.0000 0.0000 0.0000 -83.0362 27.3620 43.1106 60.3016 -56.3898 -34.5922 -0.0000 -0.0000 1.0529 7.8025 -22.2168 -2.9659 -7.1250 0.0000 -0.0000 -13.2078 8.0513 11.5470 -0.0000 0.0000 0.0000 25.9000 30.3039 -1.9120 -108.4928 58.6675 -75.9436 0.0000 0.0000 6.0972 -30.6015 -32.0837 17.4398 7.1250 -0.0000 -0.0000 1.7053 -66.0396 -0.8659
-0.7112 18.7217 5.7116 -1.3325 -0.6635 1.5211 0.0000 0.0000 0.0000 -12.2365 -3.9423 -3.9830 1.2470 7.0803 19.9535 1.2241 2.5739 -21.9711 8.5632 -16.5182 -54.5668 0.0000 0.0000 0.0000 0.0000 0.0000 0.0000 0.0000 0.0000 0.0000 -0.0000 -0.0000 0.0000 -0.0000 -0.0000 0.0000 8.6896 1.3550 8.0145 1.6507 2.8648 -2.6008 -3.5198 1.0614 -6.9406 -6.7772 -9.9387 -9.4277 4.6576 -12.7521 3.6583 1.8750 -6.2524 3.6983 0.0000 0.0000 0.0000 -83.0812 27.1081 43.1498 60.2280 -56.3704 -34.5309 -0.0000 -0.0000 1.0549 7.7310 -22.2005 -2.9364 -7.1250 0.0000 -0.0000 -13.2522 8.0737 11.5821 0.0000 0.0000 0.0000 26.4101 29.9656 -1.3147 -109.1432 58.5690 -76.4988 0.0000 0.0000 6.0817 -30.4911 -32.1750 17.4093 7.1250 -0.0000 -0.0000 1.9061 -66.1033 -0.9707
-0.7126 18.7209 5.7123 -1.3885 -0.6997 1.5170 0.0000 0.0000 0.0000 -12.1757 -3.9157 -3.9743 1.2468 7.0796 19.9515 1.2250 2.6116 -21.9962 8.5756 -16.5267 -54.6104 0.0000 0.0000 0.0000 0.0000 0.0000 0.0000 0.0000 0.0000 0.0000 -0.0000 -0.0000 0.0000 -0.0000 -0.0000 0.0000 8.6705 1.3559 8.0387 1.6971 2.8684 -2.5822 -3.4611 1.0657 -6.9371 -6.7286 -9.9741 -9.6100 4.4858 -12.7861 3.8296 1.7945 -6.2722 3.7768 0.0000 -0.0000 0.0000 -83.2027 26.8759 43.1459 60.0099 -56.3126 -34.3494 -0.0000 -0.0000 1.0940 7.7033 -22.2643 -2.9338 -7.1250 0.0000 -0.0000 -13.2694 8.0138 11.6141 0.0000 -0.0000 0.0000 26.7185 29.6453 -0.8513 -109.6910 58.4830 -76.9661 0.0000 0.0000 6.0560 -30.6375 -31.9489 17.4017 7.1250 -0.0000 -0.0000 1.5803 -65.9081 -0.7977
-0.7149 18.7188 5.7145 -1.4578 -0.7310 1.4702 0.0000 0.0000 0.0000 -12.0984 -3.8724 -3.9198 1.2463 7.0783 19.9476 1.2261 2.6023 -22.0011 8.5881 -16.5353 -54.6546 0.0000 0.0000 0.0000 0.0000 0.0000 0.0000 0.0000 0.0000 0.0000 -0.0000 -0.0000 0.0000 -0.0000 -0.0000 0.0000 8.6490 1.3551 8.1187 1.7430 2.8770 -2.5819 -3.4049 1.0697 -6.9852 -6.6800 -10.0123 -9.7332 4.3698 -12.8310 3.9704 1.7349 -6.2962 3.8389 -0.0000 0.0000 0.0000 -83.2028 26.8393 43.1957 60.0275 -56.3173 -34.3640 -0.0000 -0.0000 1.0787 7.7192 -22.3445 -2.9499 -7.1250 0.0000 -0.0000 -13.2598 7.9340 11.6266 -0.0000 0.0000 0.0000 26.8344 29.4227 -0.6900 -110.1074 58.4158 -77.3209 0.0000 0.0000 6.1045 -30.7983 -31.6320 17.3603 7.1250 -0.0000 -0.0000 1.1903 -65.6205 -0.5929
-0.7160 18.7178 5.7171 -1.4644 -0.7185 1.4350 0.0000 0.0000 0.0000 -12.0923 -3.8916 -3.8531 1.2454 7.0760 19.9406 1.2368 2.5280 -22.0568 8.5419 -16.5037 -54.4920 0.0000 0.0000 0.0000 0.0000 0.0000 0.0000 0.0000 0.0000 0.0000 -0.0000 -0.0000 0.0000 -0.0000 -0.0000 0.0000 8.5800 1.3443 8.1591 1.7536 2.8602 -2.5788 -3.3547 1.0638 -7.0103 -6.6083 -10.0104 -9.7526 4.3510 -12.8357 3.9945 1.7149 -6.2978 3.8437 0.0000 -0.0000 0.0000 -83.0759 26.8780 43.3052 60.1785 -56.3573 -34.4897 -0.0000 -0.0000 1.0324 7.6942 -22.4112 -2.9486 -7.1250 0.0000 -0.0000 -13.2754 7.8711 11.6580 0.0000 -0.0000 0.0000 26.7299 29.3700 -0.9560 -110.4150 58.3651 -77.5829 0.0000 0.0000 6.0288 -31.1664 -31.5111 17.5427 7.1250 -0.0000 -0.0000 0.6347 -65.5995 -0.3158
-0.7151 18.7180 5.7187 -1.4710 -0.6982 1.4193 0.0000 0.0000 0.0000 -12.0914 -3.9280 -3.8043 1.2433 7.0700 19.9229 1.2389 2.5180 -22.0696 8.5292 -16.4950 -54.4471 0.0000 0.0000 0.0000 0.0000 0.0000 0.0000 0.0000 0.0000 0.0000 -0.0000 -0.0000 0.0000 -0.0000 -0.0000 0.0000 8.5599 1.3510 8.1820 1.7354 2.8691 -2.5927 -3.3651 1.0671 -7.0372 -6.5729 -9.9900 -9.5335 4.4321 -12.8294 3.8708 1.7499 -6.2944 3.7613 -0.0000 -0.0000 0.0000 -82.9220 26.8709 43.4651 60.2158 -56.3672 -34.5207 -0.0000 -0.0000 1.0316 7.7055 -22.4459 -2.9573 -7.1250 0.0000 -0.0000 -13.2685 7.8362 11.6610 -0.0000 -0.0000 0.0000 26.4602 29.3418 -1.6469 -110.6147 58.3317 -77.7529 0.0000 0.0000 5.9730 -32.2176 -31.1652 18.0618 7.1250 -0.0000 -0.0000 -0.9511 -65.5368 0.4719
-0.7131 18.7181 5.7199 -1.4920 -0.6870 1.3815 0.0000 0.0000 0.0000 -12.0790 -3.9669 -3.7241 1.2392 7.0589 19.8900 1.2296 2.5735 -22.0170 8.5531 -16.5114 -54.5315 0.0000 0.0000 0.0000 0.0000 0.0000 0.0000 0.0000 0.0000 0.0000 -0.0000 -0.0000 0.0000 -0.0000 -0.0000 0.0000 8.5582 1.3497 8.2537 1.7522 2.8773 -2.6061 -3.3504 1.0687 -7.0932 -6.6572 -10.0118 -9.4061 4.4833 -12.8609 3.8715 1.7843 -6.3114 3.7506 -0.0000 -0.0000 0.0000 -82.8850 26.8866 43.5373 60.2708 -56.3817 -34.5665 -0.0000 -0.0000 1.0272 7.7137 -22.3812 -2.9524 -7.1250 0.0000 -0.0000 -13.2632 7.8986 11.6394 -0.0000 -0.0000 0.0000 25.9399 29.4483 -2.7334 -110.5040 58.3503 -77.6586 0.0000 0.0000 6.2327 -33.4827 -30.1503 18.3779 7.1250 -0.0000 -0.0000 -3.0940 -64.8088 1.4835
-0.7110 18.7172 5.7215 -1.4920 -0.6906 1.3413 0.0000 0.0000 0.0000 -12.0929 -4.0253 -3.6188 1.2340 7.0447 19.8478 1.2283 2.5913 -22.0149 8.5436 -16.5049 -54.4979 0.0000 0.0000 0.0000 0.0000 0.0000 0.0000 0.0000 0.0000 0.0000 -0.0000 -0.0000 0.0000 -0.0000 -0.0000 0.0000 8.5228 1.3352 8.3736 1.7910 2.8705 -2.6113 -3.2935 1.0641 -7.1722 -6.7708 -10.0543 -9.4300 4.4822 -12.9053 3.9591 1.7959 -6.3348 3.7986 0.0000 -0.0000 0.0000 -82.9510 26.8942 43.5067 60.3416 -56.4003 -34.6255 -0.0000 -0.0000 0.9738 7.6113 -22.2517 -2.8968 -7.1250 0.0000 -0.0000 -13.3265 8.0343 11.6615 0.0000 -0.0000 0.0000 25.1957 29.8185 -4.1830 -109.9724 58.4378 -77.2059 0.0000 0.0000 7.0399 -35.2822 -30.2483 19.6180 7.1250 -0.0000 -0.0000 -5.5370 -65.4404 2.7385
-0.7096 18.7165 5.7229 -1.4972 -0.7038 1.3458 0.0000 0.0000 0.0000 -12.0911 -4.0190 -3.5844 1.2285 7.0296 19.8029 1.2279 2.5757 -22.0038 8.5418 -16.5036 -54.4914 0.0000 0.0000 0.0000 0.0000 0.0000 0.0000 0.0000 0.0000 0.0000 -0.0000 -0.0000 0.0000 -0.0000 -0.0000 0.0000 8.5199 1.3385 8.5589 1.7958 2.9017 -2.6984 -3.2996 1.0684 -7.3704 -6.8621 -10.0802 -9.2618 4.5719 -12.9464 3.9290 1.8462 -6.3558 3.7739 0.0000 0.0000 0.0000 -82.9238 26.9973 43.5525 60.3983 -56.4151 -34.6727 -0.0000 -0.0000 0.9368 7.5349 -22.2206 -2.8637 -7.1250 0.0000 -0.0000 -13.3739 8.0715 11.6953 0.0000 0.0000 0.0000 24.4532 30.2430 -5.7668 -109.0885 58.5774 -76.4522 0.0000 0.0000 8.3856 -36.9325 -30.3031 20.7714 7.1250 -0.0000 -0.0000 -7.8799 -65.9913 4.0030
-0.7090 18.7169 5.7248 -1.5245 -0.7394 1.3657 0.0000 0.0000 0.0000 -12.0641 -3.9969 -3.5667 1.2232 7.0149 19.7595 1.2271 2.6146 -22.0150 8.5494 -16.5089 -54.5184 0.0000 0.0000 0.0000 0.0000 0.0000 0.0000 0.0000 0.0000 0.0000 -0.0000 -0.0000 0.0000 -0.0000 -0.0000 0.0000 8.5465 1.3513 8.7835 1.8020 2.9583 -2.8523 -3.3267 1.0779 -7.6604 -6.9261 -10.0890 -8.9995 4.6256 -12.9727 3.9155 1.8857 -6.3721 3.7306 0.0000 0.0000 0.0000 -82.8372 27.1973 43.6540 60.4465 -56.4277 -34.7129 -0.0000 -0.0000 0.9539 7.4885 -22.2547 -2.8500 -7.1250 0.0000 -0.0000 -13.4027 8.0423 11.7299 0.0000 0.0000 0.0000 23.6552 30.6120 -7.2738 -107.7855 58.7704 -75.3391 0.0000 0.0000 10.0640 -38.6128 -30.0876 21.8204 7.1250 -0.0000 -0.0000 -10.4128 -66.2583 5.3644
